<svg width="57" height="61" viewBox="0 0 57 61" fill="none" xmlns="http://www.w3.org/2000/svg">
<g id="DMD logo mark white 2" clip-path="url(#clip0_105_154)">
<g id="&#229;&#155;&#190;&#229;&#177;&#130; 1">
<g id="Group">
<path id="Vector" d="M57 5.47918V4.4248H48.1434L34.1321 43.6021L34.5916 45.4936L48.1434 7.71826V58.1678C48.1434 59.1554 47.3443 59.9457 46.3458 59.9457V61.0001H57V59.9457C56.0015 59.9457 55.2023 59.1554 55.2023 58.1678V7.19191C55.2023 6.26954 56.0015 5.47918 57 5.47918Z" fill="white"/>
<path id="Vector_2" d="M10.9837 4.4248L32.5929 61.0001H35.6003L13.7799 4.4248H10.9837Z" fill="white"/>
<path id="Vector_3" d="M8.39192 4.4248H5.54504V54.0138H20.0278C21.5737 54.0138 23.0858 53.8818 24.5574 53.6312L23.5538 51.0094C20.435 52.2961 17.012 53.0079 13.4166 53.0079H10.0477C9.15728 53.0079 8.3953 52.2526 8.3953 51.3102V10.0292L27.901 60.9349V61.0001H31.248L9.63711 4.4248H8.39192Z" fill="white"/>
<path id="Vector_4" d="M10.0984 1.00759C10.0984 1.00759 10.1051 1.00759 10.1085 1.00759H13.4149C13.4302 1.00759 13.4437 1.00759 13.4589 1.00759H13.6059V1.01093C27.9027 1.11119 39.4491 12.4269 39.7245 26.4663L43.8875 14.8247C39.6265 6.05889 30.5519 0 20.0278 0H0V1.00592C0 1.00592 0.00675816 1.00592 0.0101372 1.00592H10.0984V1.00759Z" fill="white"/>
<path id="Vector_5" d="M1.65237 51.3086C1.65237 52.251 0.890387 53.0062 0 53.0062V54.0122H4.19175V4.4248H1.65237V51.3086Z" fill="white"/>
</g>
</g>
</g>
<defs>
<clipPath id="clip0_105_154">
<rect width="57" height="61" fill="white"/>
</clipPath>
</defs>
</svg>
